<svg xmlns="http://www.w3.org/2000/svg" version="1.1" xmlns:xlink="http://www.w3.org/1999/xlink" xmlns:svgjs="http://svgjs.dev/svgjs" width="2000" height="2000" viewBox="0 0 2000 2000"><g transform="matrix(1,0,0,1,0,0)"><svg viewBox="0 0 280 280" data-background-color="#1f2d5a" preserveAspectRatio="xMidYMid meet" height="2000" width="2000" xmlns="http://www.w3.org/2000/svg" xmlns:xlink="http://www.w3.org/1999/xlink"><g id="tight-bounds" transform="matrix(1,0,0,1,0,0)"><svg viewBox="0 0 280 280" height="280" width="280"><g><svg viewBox="0 0 280 280" height="280" width="280"><g><svg viewBox="0 0 280 280" height="280" width="280"><g id="textblocktransform"><svg viewBox="0 0 280 280" height="280" width="280" id="textblock"><g><svg viewBox="0 0 280 280" height="280" width="280"><g transform="matrix(1,0,0,1,74.00336708925556,87.42268244777361)"><svg viewBox="0 0 131.99326582148888 105.1546351044528" height="105.1546351044528" width="131.99326582148888"><g><svg xmlns="http://www.w3.org/2000/svg" xmlns:xlink="http://www.w3.org/1999/xlink" version="1.1" x="0" y="0" viewBox="-250 361.2 90 71.69999999999999" style="enable-background:new -255 347 100 100;" xml:space="preserve" height="105.1546351044528" width="131.99326582148888" class="icon-xg-0" data-fill-palette-color="accent" id="xg-0"><path d="M-162 361.2H-248c-1.1 0-2 0.9-2 2v56.7c0 1.1 0.9 2 2 2h33.4v11l6.8-11h45.8c1.1 0 2-0.9 2-2v-56.7C-160 362.1-160.9 361.2-162 361.2zM-175.5 378.4l1.4-4.2 1.4 4.2h4.4l-3.6 2.6 1.4 4.2-3.6-2.6-3.6 2.6 1.4-4.2-3.6-2.6H-175.5zM-191 378.4l1.4-4.2 1.4 4.2h4.4l-3.6 2.6 1.4 4.2-3.6-2.6-3.6 2.6 1.4-4.2-3.6-2.6H-191zM-206.4 378.4l1.4-4.2 1.4 4.2h4.4l-3.6 2.6 1.4 4.2-3.6-2.6-3.6 2.6 1.4-4.2-3.6-2.6H-206.4zM-221.8 378.4l1.4-4.2 1.4 4.2h4.4l-3.6 2.6 1.4 4.2-3.6-2.6-3.6 2.6 1.4-4.2-3.6-2.6H-221.8zM-237.2 378.4l1.4-4.2 1.4 4.2h4.4l-3.6 2.6 1.4 4.2-3.6-2.6-3.6 2.6 1.4-4.2-3.6-2.6H-237.2zM-178.2 410.4h-61.3c-1.3 0-2.3-0.8-2.3-1.7 0-0.9 1-1.7 2.3-1.7h61.3c1.3 0 2.3 0.8 2.3 1.7C-175.8 409.7-176.9 410.4-178.2 410.4zM-169.2 400.3h-70c-1.5 0-2.7-0.8-2.7-1.7 0-1 1.2-1.7 2.7-1.7h70c1.5 0 2.7 0.8 2.7 1.7C-166.5 399.6-167.7 400.3-169.2 400.3z" fill="#ffffff" data-fill-palette-color="accent"></path></svg></g></svg></g><g><path d="M20.056 99.861l10.421 3.389c0.178 0.058-0.101 1.218-0.837 3.481v0c-0.789 2.253-1.26 3.354-1.412 3.305v0l-12.395-4.032-0.328 1.011c-0.128 0.394-0.475 0.629-1.042 0.705-0.562 0.084-1.205 0.009-1.929-0.227v0c-2.689-0.875-3.774-2.109-3.255-3.705v0c0.364-1.119 1.011-1.941 1.942-2.468 0.928-0.52 1.828-0.639 2.699-0.356v0c-0.852-0.86-1.439-1.832-1.762-2.913-0.323-1.082-0.334-2.084-0.035-3.006v0c0.469-1.443 1.128-2.192 1.975-2.246v0c0.222-0.012 0.527 0.045 0.914 0.171 0.388 0.126 1.038 0.471 1.951 1.035 0.921 0.56 1.564 1.036 1.929 1.429 0.371 0.395 0.548 0.617 0.531 0.668-0.017 0.051-0.183 0.25-0.5 0.596-0.325 0.351-0.54 0.689-0.645 1.013v0c-0.308 0.947 0.285 1.664 1.778 2.15z" fill="#ffffff" data-fill-palette-color="primary"></path><path d="M39.064 82.19v0c0.121 1.911-0.403 4.023-1.572 6.339-1.166 2.309-2.939 3.862-5.318 4.659-2.383 0.789-4.97 0.478-7.763-0.932-2.792-1.41-4.656-3.31-5.59-5.699-0.932-2.395-0.807-4.762 0.373-7.101 1.178-2.333 2.686-3.836 4.525-4.51 1.835-0.668 3.606-0.571 5.312 0.29v0c3.783 1.91 4.577 5.037 2.383 9.381v0l-1.22 2.416c0.704 0.356 1.287 0.41 1.748 0.164 0.464-0.252 0.885-0.751 1.262-1.497v0c0.826-1.635 1.238-3.377 1.236-5.228v0c-0.012-0.036 0.202-0.059 0.641-0.069v0c1.292-0.052 2.28 0.096 2.967 0.443 0.692 0.35 1.031 0.798 1.016 1.344zM26.719 81.459v0c-0.978-0.494-1.709-0.264-2.191 0.691v0c-0.226 0.447-0.285 0.897-0.176 1.349 0.112 0.446 0.424 0.798 0.938 1.057v0l1.083 0.547 0.953-1.888c0.389-0.77 0.186-1.355-0.607-1.756z" fill="#ffffff" data-fill-palette-color="primary"></path><path d="M44.42 75.478l-18.238-7.475c-0.214-0.061 0.443-1.099 1.969-3.112 1.527-2.013 2.34-2.981 2.442-2.905v0l12.349 5.816-9.203-9.633c-0.138-0.205 0.552-1.309 2.071-3.312v0c1.535-2.024 2.36-2.941 2.477-2.752v0l11.963 16.017c0.099 0.301-0.738 1.621-2.512 3.959-1.773 2.338-2.879 3.471-3.318 3.397z" fill="#ffffff" data-fill-palette-color="primary"></path><path d="M47.187 42.809l13.712 13.554c0.152 0.15-0.613 1.076-2.295 2.778-1.687 1.707-2.597 2.494-2.73 2.362v0l-13.712-13.553c-0.128-0.127 0.651-1.044 2.338-2.75 1.682-1.702 2.578-2.499 2.687-2.391zM41.433 37.121l4.107 4.06c0.128 0.127-0.649 1.041-2.33 2.743-1.687 1.707-2.585 2.506-2.695 2.397v0l-4.021-3.975c-0.185-0.183 0.565-1.128 2.252-2.834 1.682-1.702 2.578-2.499 2.687-2.391z" fill="#ffffff" data-fill-palette-color="primary"></path><path d="M75.79 43.844v0c-0.734 1.768-2.135 3.434-4.205 4.996-2.064 1.559-4.34 2.172-6.827 1.839-2.486-0.342-4.672-1.762-6.557-4.258-1.885-2.496-2.72-5.023-2.507-7.58 0.219-2.561 1.374-4.63 3.465-6.209 2.086-1.575 4.102-2.26 6.05-2.055 1.942 0.209 3.488 1.076 4.64 2.602v0c2.553 3.382 1.888 6.539-1.995 9.471v0l-2.16 1.631c0.475 0.629 0.974 0.935 1.496 0.918 0.528-0.022 1.125-0.284 1.793-0.788v0c1.462-1.104 2.599-2.486 3.413-4.148v0c0.005-0.037 0.207 0.036 0.606 0.221v0c1.182 0.523 2.005 1.091 2.468 1.704 0.467 0.619 0.574 1.171 0.32 1.656zM65.031 37.746v0c-0.661-0.875-1.418-0.99-2.271-0.345v0c-0.4 0.302-0.651 0.68-0.752 1.133-0.096 0.449 0.029 0.904 0.375 1.362v0l0.731 0.969 1.688-1.275c0.688-0.52 0.764-1.134 0.229-1.844z" fill="#ffffff" data-fill-palette-color="primary"></path><path d="M94.796 28.468l-4.085-12.258c-0.098-0.213 0.509-0.621 1.82-1.224v0c2.945-1.355 4.439-1.929 4.484-1.721v0l4.483 18.95c0.103 0.416-1.129 1.215-3.697 2.398-2.568 1.182-3.977 1.599-4.226 1.249v0l-5.138-7.326 1.859 8.835c0.092 0.392-1.189 1.198-3.842 2.42-2.653 1.221-4.113 1.632-4.378 1.231v0l-11.176-15.915c-0.137-0.106 0.854-0.647 2.973-1.622v0c2.106-0.94 3.176-1.373 3.209-1.3v0l7.189 11.304-2.527-13.284c-0.016-0.162 0.738-0.594 2.263-1.295 1.518-0.699 2.333-0.989 2.446-0.872v0z" fill="#ffffff" data-fill-palette-color="primary"></path><path d="M121.012 14.427l1.887 12.593c0.035 0.231-1.029 0.509-3.191 0.833-2.162 0.324-3.27 0.304-3.324-0.06v0l-3.985-26.603c-0.028-0.185 0.356-0.374 1.152-0.568 0.788-0.199 1.453-0.339 1.995-0.42v0c2.175-0.326 3.297-0.257 3.366 0.205v0l1.164 7.774c1.388-0.661 2.455-1.047 3.203-1.159v0c1.97-0.295 3.602-0.002 4.896 0.878 1.3 0.873 2.163 2.734 2.59 5.583v0l1.805 12.047c0.035 0.231-0.959 0.499-2.982 0.802v0c-2.286 0.261-3.442 0.303-3.469 0.124v0l-1.711-11.422c-0.19-1.269-0.702-1.841-1.535-1.717v0c-0.568 0.085-1.189 0.455-1.861 1.11z" fill="#ffffff" data-fill-palette-color="primary"></path><path d="M139.56 11.764v0c-0.685-1.337-1.012-2.416-0.98-3.238 0.031-0.828 0.275-1.351 0.732-1.567v0c1.514-0.598 3.574-0.848 6.178-0.749 2.605 0.099 4.419 0.777 5.441 2.033 1.029 1.263 1.498 3.084 1.408 5.461v0l-0.235 6.202 1.332 0.051c0.448 0.017 0.785 0.291 1.012 0.821 0.227 0.537 0.323 1.263 0.289 2.178-0.035 0.915-0.296 1.808-0.784 2.679-0.495 0.871-1.133 1.291-1.914 1.262v0c-1.416-0.054-2.54-0.474-3.374-1.262v0c-0.382-0.329-0.668-0.721-0.858-1.177v0c-1.267 1.47-3.165 2.157-5.697 2.062v0c-1.91-0.073-3.494-0.815-4.751-2.228-1.258-1.406-1.851-3.037-1.781-4.893v0c0.162-4.268 2.795-6.305 7.898-6.112v0l2.154 0.082 0.015-0.39c0.026-0.681-0.068-1.123-0.281-1.325-0.213-0.209-0.727-0.329-1.542-0.36v0c-0.995-0.038-2.416 0.119-4.262 0.47zM142.422 19.107v0c-0.022 0.574 0.119 1.018 0.421 1.33 0.302 0.312 0.698 0.478 1.185 0.497 0.481 0.018 0.926-0.162 1.335-0.542v0l0.114-3.015-1.102-0.042c-1.256-0.048-1.907 0.543-1.953 1.772z" fill="#ffffff" data-fill-palette-color="primary"></path><path d="M168.224 18.109l-2.172 10.741c-0.037 0.183-1.222 0.039-3.554-0.432v0c-2.328-0.525-3.476-0.866-3.445-1.024v0l2.583-12.775-1.042-0.211c-0.406-0.082-0.679-0.4-0.82-0.953-0.148-0.548-0.147-1.196 0.004-1.943v0c0.56-2.771 1.663-3.991 3.307-3.658v0c1.153 0.233 2.045 0.782 2.675 1.645 0.623 0.863 0.844 1.743 0.663 2.64v0c0.757-0.945 1.654-1.64 2.692-2.084 1.038-0.445 2.032-0.571 2.982-0.379v0c1.487 0.301 2.307 0.869 2.458 1.704v0c0.038 0.219 0.016 0.528-0.065 0.927-0.081 0.4-0.349 1.085-0.804 2.057-0.45 0.98-0.85 1.673-1.198 2.08-0.35 0.413-0.551 0.615-0.603 0.605-0.052-0.011-0.269-0.153-0.65-0.428-0.386-0.283-0.746-0.458-1.08-0.526v0c-0.976-0.197-1.62 0.474-1.931 2.014z" fill="#ffffff" data-fill-palette-color="primary"></path><path d="M194.574 25.832l-4.882 11.619c-0.072 0.173-1.141-0.175-3.205-1.042-2.064-0.867-3.051-1.409-2.961-1.625v0l4.428-10.537c0.507-1.208 0.364-1.979-0.431-2.313v0c-0.413-0.173-1.07-0.138-1.97 0.108v0l-4.867 11.581c-0.104 0.246-1.188-0.064-3.252-0.931-2.058-0.865-3.032-1.43-2.92-1.695v0l4.976-11.84-0.906-0.381c-0.801-0.337-0.851-1.34-0.149-3.01v0c0.313-0.746 0.777-1.443 1.389-2.091v0c0.836-0.903 1.689-1.172 2.558-0.807 0.869 0.365 1.61 0.948 2.223 1.75 0.622 0.798 0.929 1.438 0.922 1.921v0c2.057-0.702 3.997-0.67 5.821 0.097 1.818 0.764 3.043 1.946 3.676 3.545v0c1.783-0.585 3.592-0.492 5.428 0.28v0c3.981 1.673 4.951 4.937 2.911 9.793v0l-4.622 10.999c-0.072 0.173-1.141-0.175-3.205-1.042-2.064-0.867-3.051-1.409-2.961-1.625v0l4.428-10.537c0.507-1.208 0.364-1.979-0.431-2.312v0c-0.438-0.184-1.103-0.152-1.998 0.095z" fill="#ffffff" data-fill-palette-color="primary"></path><path d="M204.278 42.599c-0.283-2.42 0.504-4.93 2.361-7.53 1.857-2.6 3.977-4.157 6.358-4.674 2.38-0.526 4.701 0.02 6.964 1.636 2.257 1.613 3.52 3.628 3.788 6.046 0.272 2.413-0.52 4.919-2.378 7.519-1.857 2.6-3.971 4.161-6.342 4.685-2.371 0.524-4.684-0.02-6.941-1.633-2.262-1.617-3.532-3.633-3.81-6.049zM216.165 37.378c-1.207-0.863-2.512-0.312-3.915 1.651-1.399 1.958-1.495 3.368-0.287 4.231 1.202 0.859 2.502 0.309 3.901-1.649 1.403-1.963 1.503-3.374 0.301-4.233z" fill="#ffffff" data-fill-palette-color="primary"></path><path d="M233.014 52.99l-9.078 8.741c-0.135 0.13-0.856-0.484-2.163-1.842v0c-1.76-1.943-2.565-2.986-2.416-3.13v0l9.165-8.825-0.709-0.736c-0.468-0.486-0.36-1.207 0.324-2.164v0c0.208-0.275 0.435-0.531 0.681-0.767v0c0.583-0.561 1.274-1.009 2.075-1.344v0c1.162-0.46 2.089-0.332 2.779 0.386 0.691 0.717 1.136 1.522 1.337 2.415 0.21 0.893 0.235 1.597 0.074 2.114v0c2.166 0.206 4.037 1.128 5.613 2.765 1.581 1.642 2.283 3.258 2.107 4.848-0.177 1.59-1.276 3.358-3.298 5.305v0l-8.486 8.171c-0.226 0.218-1.116-0.48-2.669-2.092-1.553-1.613-2.217-2.528-1.991-2.747v0l8.176-7.872c0.944-0.909 1.098-1.693 0.462-2.352v0c-0.181-0.188-0.515-0.376-1.003-0.565-0.483-0.184-0.81-0.287-0.98-0.309z" fill="#ffffff" data-fill-palette-color="primary"></path><path d="M253.362 67.132l-15.651 11.259c-0.174 0.125-0.959-0.784-2.357-2.726-1.401-1.948-2.026-2.976-1.874-3.086v0l15.651-11.259c0.146-0.105 0.92 0.816 2.322 2.764 1.397 1.942 2.034 2.959 1.909 3.048zM259.93 62.407l-4.688 3.373c-0.146 0.105-0.918-0.813-2.316-2.756-1.401-1.948-2.039-2.967-1.915-3.056v0l4.59-3.302c0.212-0.152 1.018 0.746 2.42 2.693 1.397 1.942 2.034 2.959 1.909 3.048z" fill="#ffffff" data-fill-palette-color="primary"></path><path d="M251.456 83.678v0c-2.262 1.199-2.938 2.655-2.03 4.367v0c0.589 1.11 1.297 1.918 2.125 2.425v0c0.185 0.348-0.261 0.948-1.338 1.799-1.071 0.848-1.822 1.386-2.253 1.615-0.425 0.225-0.738 0.32-0.94 0.283v0c-1.413-0.824-2.683-2.299-3.81-4.426-1.13-2.132-1.299-4.361-0.506-6.688 0.79-2.333 2.559-4.228 5.305-5.684 2.74-1.453 5.344-1.892 7.813-1.317 2.465 0.569 4.346 2.076 5.642 4.52 1.293 2.439 1.6 4.444 0.92 6.015v0c-0.141 0.347-0.46 0.652-0.956 0.916-0.502 0.266-1.16 0.494-1.975 0.684v0c-1.701 0.373-2.846 0.283-3.433-0.268v0c-0.071-0.076-0.153-0.203-0.247-0.38-0.091-0.171-0.065-0.457 0.079-0.858v0c0.424-1.383 0.493-2.345 0.204-2.889-0.288-0.543-0.815-0.866-1.579-0.967-0.762-0.095-1.769 0.189-3.021 0.853z" fill="#ffffff" data-fill-palette-color="primary"></path><path d="M254.612 96.719v0c-0.517 2.423-0.573 4.215-0.169 5.376v0c0.257 0.739 0.644 1.018 1.162 0.838v0c0.372-0.129 0.633-0.938 0.78-2.426v0c0.188-3.532 1.714-5.797 4.581-6.793v0c1.831-0.636 3.462-0.453 4.893 0.55 1.429 0.996 2.468 2.429 3.118 4.298 0.649 1.869 1 3.519 1.052 4.952 0.054 1.439-0.237 2.269-0.875 2.49v0c-0.549 0.191-1.361 0.176-2.435-0.045-1.075-0.221-1.682-0.42-1.822-0.598v0c0.225-1.267 0.122-2.519-0.308-3.757v0c-0.233-0.669-0.586-0.922-1.059-0.757v0c-0.297 0.103-0.504 0.32-0.622 0.652-0.118 0.331-0.212 0.898-0.28 1.7-0.068 0.802-0.149 1.474-0.244 2.016-0.086 0.546-0.251 1.181-0.496 1.903v0c-0.528 1.514-1.547 2.533-3.055 3.057v0c-1.976 0.687-3.805 0.586-5.486-0.301-1.679-0.881-2.979-2.648-3.901-5.299v0c-0.61-1.755-0.867-3.452-0.772-5.092 0.095-1.639 0.661-2.639 1.696-2.999v0c0.694-0.241 1.482-0.328 2.362-0.258 0.887 0.067 1.513 0.231 1.88 0.493z" fill="#ffffff" data-fill-palette-color="primary"></path><path d="M21.964 185.275l-10.421 3.39c-0.178 0.058-0.635-1.045-1.371-3.308v0c-0.687-2.286-0.955-3.453-0.802-3.503v0l12.395-4.031-0.329-1.011c-0.128-0.394 0.014-0.788 0.427-1.182 0.405-0.399 0.969-0.716 1.694-0.952v0c2.689-0.875 4.292-0.514 4.811 1.081v0c0.364 1.119 0.325 2.165-0.118 3.138-0.445 0.967-1.102 1.592-1.973 1.876v0c1.195 0.195 2.241 0.635 3.139 1.319 0.898 0.685 1.496 1.488 1.796 2.41v0c0.469 1.443 0.378 2.436-0.275 2.979v0c-0.172 0.14-0.452 0.274-0.84 0.399-0.388 0.126-1.117 0.23-2.187 0.311-1.074 0.089-1.874 0.083-2.4-0.021-0.532-0.101-0.806-0.177-0.823-0.228-0.017-0.051 0.001-0.31 0.054-0.776 0.056-0.475 0.032-0.875-0.074-1.199v0c-0.308-0.947-1.209-1.178-2.703-0.692z" fill="#ffffff" data-fill-palette-color="secondary"></path><path d="M23.118 211.62v0c-1.609-1.037-2.999-2.713-4.168-5.028-1.166-2.309-1.364-4.658-0.593-7.046 0.78-2.386 2.565-4.283 5.358-5.693 2.792-1.41 5.427-1.782 7.905-1.117 2.481 0.672 4.312 2.177 5.492 4.515 1.178 2.333 1.493 4.439 0.945 6.319-0.551 1.873-1.68 3.241-3.387 4.102v0c-3.783 1.91-6.771 0.694-8.964-3.649v0l-1.22-2.417c-0.704 0.356-1.094 0.792-1.17 1.31-0.073 0.523 0.079 1.158 0.456 1.904v0c0.826 1.635 1.983 3.001 3.474 4.097v0c0.036 0.012-0.072 0.198-0.325 0.558v0c-0.725 1.07-1.431 1.778-2.117 2.124-0.692 0.35-1.254 0.356-1.686 0.021zM31.034 202.118v0c0.978-0.494 1.227-1.219 0.745-2.173v0c-0.226-0.447-0.553-0.762-0.982-0.942-0.425-0.175-0.894-0.132-1.407 0.127v0l-1.083 0.546 0.954 1.889c0.389 0.77 0.98 0.954 1.773 0.553z" fill="#ffffff" data-fill-palette-color="secondary"></path><path d="M29.242 221.787l12.12-15.544c0.117-0.189 0.938 0.723 2.465 2.736 1.527 2.013 2.239 3.058 2.138 3.135v0l-8.933 10.322 11.759-6.262c0.235-0.077 1.112 0.885 2.631 2.888v0c1.535 2.024 2.195 3.066 1.981 3.127v0l-18.65 7.197c-0.317 0.014-1.362-1.148-3.135-3.486-1.773-2.338-2.565-3.709-2.376-4.113z" fill="#ffffff" data-fill-palette-color="secondary"></path><path d="M60.736 229.555l-13.711 13.554c-0.152 0.15-1.069-0.625-2.752-2.327-1.687-1.707-2.464-2.626-2.331-2.758v0l13.712-13.553c0.128-0.127 1.036 0.663 2.723 2.369 1.682 1.702 2.469 2.607 2.359 2.715zM66.49 223.867l-4.107 4.06c-0.128 0.127-1.034-0.661-2.716-2.363-1.687-1.707-2.476-2.614-2.366-2.722v0l4.021-3.975c0.185-0.183 1.122 0.578 2.809 2.285 1.682 1.702 2.469 2.607 2.359 2.715z" fill="#ffffff" data-fill-palette-color="secondary"></path><path d="M65.026 256.17v0c-1.902-0.221-3.887-1.113-5.957-2.676-2.064-1.559-3.277-3.58-3.638-6.063-0.352-2.485 0.415-4.976 2.3-7.472 1.885-2.496 4.086-3.992 6.603-4.487 2.523-0.491 4.83 0.054 6.921 1.633 2.086 1.575 3.297 3.326 3.633 5.255 0.331 1.925-0.08 3.65-1.232 5.175v0c-2.553 3.382-5.772 3.607-9.655 0.675v0l-2.161-1.631c-0.475 0.629-0.633 1.193-0.472 1.691 0.165 0.502 0.582 1.004 1.248 1.508v0c1.462 1.104 3.103 1.819 4.924 2.147v0c0.037-0.005 0.022 0.209-0.046 0.644v0c-0.179 1.28-0.5 2.227-0.964 2.84-0.467 0.619-0.969 0.873-1.504 0.761zM67.944 244.152v0c0.661-0.875 0.564-1.634-0.29-2.278v0c-0.4-0.302-0.832-0.44-1.296-0.414-0.459 0.031-0.861 0.275-1.207 0.734v0l-0.731 0.969 1.688 1.274c0.688 0.52 1.3 0.425 1.836-0.285z" fill="#ffffff" data-fill-palette-color="secondary"></path><path d="M91.955 263.462l6.654-11.076c0.098-0.213 0.802-0.017 2.114 0.587v0c2.945 1.355 4.353 2.117 4.223 2.286v0l-11.478 15.731c-0.249 0.349-1.658-0.068-4.226-1.25-2.568-1.182-3.801-1.981-3.698-2.397v0l2.223-8.667-5.502 7.158c-0.238 0.325-1.683-0.124-4.336-1.345-2.653-1.221-3.914-2.063-3.783-2.524v0l4.819-18.84c-0.009-0.173 1.047 0.228 3.166 1.203v0c2.084 0.988 3.109 1.519 3.075 1.592v0l-3.91 12.813 8.447-10.56c0.113-0.117 0.931 0.175 2.455 0.876 1.518 0.699 2.269 1.129 2.253 1.291v0z" fill="#ffffff" data-fill-palette-color="secondary"></path><path d="M121.904 265.378l-1.887 12.593c-0.035 0.231-1.133 0.185-3.294-0.139-2.162-0.324-3.215-0.668-3.161-1.031v0l3.986-26.603c0.028-0.185 0.45-0.254 1.267-0.205 0.812 0.041 1.489 0.101 2.031 0.182v0c2.175 0.326 3.227 0.72 3.158 1.183v0l-1.164 7.774c1.521-0.225 2.654-0.282 3.401-0.17v0c1.97 0.295 3.445 1.053 4.424 2.275 0.987 1.216 1.267 3.248 0.84 6.097v0l-1.805 12.047c-0.035 0.231-1.063 0.196-3.086-0.108v0c-2.262-0.42-3.38-0.719-3.353-0.897v0l1.712-11.423c0.19-1.269-0.131-1.966-0.964-2.091v0c-0.568-0.085-1.27 0.087-2.105 0.516z" fill="#ffffff" data-fill-palette-color="secondary"></path><path d="M139.237 265.475v0c-0.784-1.281-1.192-2.333-1.224-3.154-0.031-0.828 0.172-1.368 0.611-1.619v0c1.465-0.711 3.499-1.116 6.104-1.215 2.605-0.099 4.465 0.439 5.58 1.614 1.122 1.181 1.728 2.961 1.818 5.339v0l0.236 6.202 1.332-0.051c0.448-0.017 0.805 0.23 1.072 0.742 0.267 0.518 0.418 1.235 0.453 2.15 0.035 0.915-0.158 1.825-0.579 2.731-0.427 0.906-1.031 1.374-1.813 1.403v0c-1.416 0.054-2.569-0.28-3.459-1.002v0c-0.406-0.299-0.721-0.668-0.945-1.108v0c-1.151 1.562-2.993 2.391-5.524 2.487v0c-1.91 0.073-3.546-0.548-4.907-1.86-1.361-1.306-2.076-2.888-2.147-4.744v0c-0.162-4.268 2.308-6.499 7.411-6.693v0l2.154-0.082-0.014-0.391c-0.026-0.681-0.153-1.115-0.381-1.3-0.228-0.192-0.749-0.273-1.564-0.241v0c-0.995 0.038-2.4 0.302-4.214 0.792zM142.647 272.579v0c0.022 0.574 0.195 1.006 0.521 1.295 0.325 0.289 0.732 0.424 1.219 0.405 0.481-0.018 0.911-0.232 1.29-0.641v0l-0.114-3.016-1.102 0.042c-1.256 0.048-1.86 0.686-1.814 1.915z" fill="#ffffff" data-fill-palette-color="secondary"></path><path d="M167.826 265.681l2.171 10.741c0.037 0.183-1.111 0.511-3.442 0.983v0c-2.349 0.42-3.54 0.552-3.572 0.394v0l-2.583-12.775-1.042 0.211c-0.406 0.082-0.781-0.105-1.126-0.56-0.35-0.448-0.6-1.045-0.75-1.792v0c-0.56-2.771-0.018-4.323 1.626-4.656v0c1.153-0.233 2.188-0.074 3.103 0.478 0.91 0.553 1.455 1.278 1.637 2.175v0c0.331-1.165 0.888-2.154 1.671-2.967 0.783-0.813 1.65-1.316 2.6-1.507v0c1.487-0.301 2.463-0.096 2.927 0.615v0c0.12 0.187 0.22 0.481 0.301 0.88 0.081 0.4 0.1 1.136 0.058 2.208-0.034 1.078-0.133 1.871-0.296 2.382-0.161 0.517-0.268 0.781-0.321 0.791-0.052 0.011-0.307-0.037-0.765-0.142-0.466-0.11-0.865-0.132-1.2-0.064v0c-0.976 0.197-1.309 1.066-0.997 2.605z" fill="#ffffff" data-fill-palette-color="secondary"></path><path d="M192.398 254.747l4.882 11.618c0.072 0.173-0.923 0.693-2.987 1.56-2.064 0.867-3.142 1.193-3.233 0.978v0l-4.427-10.537c-0.507-1.208-1.159-1.645-1.954-1.311v0c-0.413 0.173-0.847 0.668-1.302 1.482v0l4.867 11.582c0.104 0.246-0.877 0.803-2.941 1.671-2.058 0.865-3.143 1.165-3.255 0.9v0l-4.975-11.841-0.906 0.381c-0.801 0.337-1.552-0.33-2.254-2v0c-0.313-0.746-0.487-1.564-0.521-2.457v0c-0.06-1.229 0.345-2.026 1.214-2.391 0.869-0.365 1.804-0.486 2.805-0.363 1.005 0.114 1.677 0.343 2.018 0.686v0c0.938-1.96 2.319-3.323 4.143-4.09 1.818-0.764 3.52-0.812 5.105-0.144v0c0.83-1.683 2.163-2.91 3.999-3.682v0c3.981-1.673 6.991-0.081 9.032 4.775v0l4.621 10.999c0.072 0.173-0.923 0.693-2.987 1.56-2.064 0.867-3.142 1.193-3.233 0.977v0l-4.427-10.537c-0.507-1.208-1.159-1.645-1.954-1.31v0c-0.438 0.184-0.881 0.682-1.33 1.494z" fill="#ffffff" data-fill-palette-color="secondary"></path><path d="M213.206 255.654c-2.382-0.516-4.501-2.074-6.358-4.674-1.857-2.6-2.645-5.109-2.362-7.53 0.274-2.422 1.542-4.441 3.805-6.057 2.257-1.613 4.573-2.154 6.947-1.625 2.371 0.524 4.485 2.086 6.342 4.685 1.857 2.6 2.65 5.106 2.378 7.519-0.272 2.413-1.537 4.425-3.794 6.037-2.262 1.617-4.582 2.165-6.958 1.645zM212.119 242.716c-1.207 0.863-1.11 2.276 0.293 4.239 1.399 1.958 2.702 2.505 3.91 1.643 1.202-0.859 1.103-2.267-0.296-4.225-1.403-1.963-2.705-2.515-3.907-1.657z" fill="#ffffff" data-fill-palette-color="secondary"></path><path d="M228.911 228.816l9.078 8.741c0.135 0.13-0.451 0.874-1.759 2.232v0c-1.875 1.832-2.887 2.676-3.036 2.532v0l-9.165-8.825-0.709 0.736c-0.468 0.486-1.193 0.405-2.175-0.242v0c-0.283-0.198-0.547-0.415-0.792-0.652v0c-0.583-0.561-1.056-1.235-1.421-2.022v0c-0.504-1.144-0.41-2.075 0.281-2.792 0.691-0.717 1.478-1.193 2.362-1.427 0.884-0.244 1.587-0.295 2.11-0.154v0c0.124-2.172 0.975-4.077 2.552-5.713 1.581-1.642 3.169-2.405 4.764-2.288 1.595 0.116 3.404 1.148 5.426 3.095v0l8.486 8.171c0.226 0.218-0.437 1.133-1.991 2.747-1.553 1.613-2.443 2.31-2.669 2.092v0l-8.175-7.872c-0.944-0.909-1.733-1.033-2.368-0.374v0c-0.181 0.188-0.356 0.529-0.527 1.024-0.166 0.49-0.256 0.82-0.272 0.991z" fill="#ffffff" data-fill-palette-color="secondary"></path><path d="M237.897 207.499l15.651 11.259c0.174 0.125-0.438 1.159-1.836 3.101-1.401 1.948-2.178 2.867-2.33 2.758v0l-15.651-11.259c-0.146-0.105 0.481-1.132 1.882-3.08 1.397-1.942 2.158-2.869 2.284-2.779zM231.329 202.774l4.688 3.373c0.146 0.105-0.479 1.129-1.877 3.071-1.401 1.948-2.164 2.877-2.289 2.788v0l-4.59-3.303c-0.212-0.152 0.383-1.202 1.784-3.15 1.397-1.942 2.158-2.869 2.284-2.779z" fill="#ffffff" data-fill-palette-color="secondary"></path><path d="M251.915 202.322v0c2.262 1.199 3.847 0.943 4.755-0.769v0c0.589-1.11 0.86-2.15 0.815-3.121v0c0.185-0.348 0.931-0.316 2.24 0.099 1.303 0.411 2.17 0.731 2.601 0.959 0.425 0.225 0.679 0.432 0.761 0.619v0c0.11 1.632-0.398 3.511-1.525 5.637-1.13 2.132-2.881 3.522-5.253 4.171-2.375 0.655-4.935 0.254-7.681-1.201-2.74-1.453-4.565-3.362-5.474-5.729-0.912-2.36-0.72-4.762 0.576-7.207 1.293-2.439 2.781-3.818 4.463-4.136v0c0.367-0.078 0.798 0.015 1.294 0.278 0.502 0.266 1.06 0.683 1.674 1.251v0c1.263 1.199 1.831 2.197 1.705 2.992v0c-0.023 0.101-0.082 0.24-0.176 0.417-0.091 0.171-0.342 0.31-0.755 0.417v0c-1.383 0.424-2.218 0.908-2.506 1.452-0.288 0.543-0.259 1.16 0.086 1.85 0.348 0.684 1.149 1.358 2.4 2.021z" fill="#ffffff" data-fill-palette-color="secondary"></path><path d="M260.141 190.96v0c1.908-1.58 3.064-2.951 3.468-4.113v0c0.257-0.739 0.126-1.198-0.392-1.378v0c-0.372-0.129-1.078 0.344-2.117 1.419v0c-2.338 2.655-4.94 3.484-7.806 2.488v0c-1.831-0.636-2.997-1.792-3.498-3.466-0.503-1.668-0.43-3.436 0.22-5.305 0.649-1.869 1.398-3.381 2.246-4.537 0.85-1.162 1.593-1.633 2.231-1.411v0c0.549 0.191 1.177 0.706 1.883 1.546 0.706 0.84 1.058 1.373 1.057 1.598v0c-0.962 0.854-1.658 1.9-2.088 3.138v0c-0.233 0.669-0.112 1.086 0.361 1.251v0c0.297 0.103 0.594 0.061 0.893-0.125 0.298-0.186 0.723-0.573 1.273-1.16 0.551-0.587 1.031-1.064 1.442-1.431 0.406-0.375 0.929-0.77 1.569-1.185v0c1.353-0.86 2.784-1.028 4.293-0.503v0c1.976 0.687 3.348 1.9 4.117 3.638 0.771 1.733 0.695 3.925-0.226 6.577v0c-0.61 1.755-1.461 3.246-2.553 4.473-1.092 1.227-2.155 1.66-3.19 1.301v0c-0.694-0.241-1.366-0.662-2.013-1.263-0.654-0.602-1.044-1.12-1.17-1.552z" fill="#ffffff" data-fill-palette-color="secondary"></path><path d="M3.019 142.878c0-5.883 4.769-10.652 10.652-10.652 5.883 0 10.652 4.769 10.652 10.652 0 5.883-4.769 10.652-10.652 10.652-5.883 0-10.652-4.769-10.652-10.652z" fill="#ffffff" data-fill-palette-color="primary"></path><path d="M255.677 142.878c0-5.883 4.769-10.652 10.652-10.652 5.883 0 10.652 4.769 10.652 10.652 0 5.883-4.769 10.652-10.652 10.652-5.883 0-10.652-4.769-10.652-10.652z" fill="#ffffff" data-fill-palette-color="primary"></path></g></svg></g></svg></g></svg></g><g></g></svg></g><defs></defs></svg><rect width="280" height="280" fill="none" stroke="none" visibility="hidden"></rect></g></svg></g></svg>